<?xml version="1.0" standalone="no"?>
<!DOCTYPE svg PUBLIC "-//W3C//DTD SVG 20010904//EN"
 "http://www.w3.org/TR/2001/REC-SVG-20010904/DTD/svg10.dtd">
<svg version="1.0" xmlns="http://www.w3.org/2000/svg"
 width="512.000000pt" height="512.000000pt" viewBox="0 0 512.000000 512.000000"
 preserveAspectRatio="xMidYMid meet">
<metadata>
Created by potrace 1.14, written by Peter Selinger 2001-2017
</metadata>
<g transform="translate(0.000000,512.000000) scale(0.100000,-0.100000)"
fill="#000000" stroke="none">
<path d="M2491 4859 c-82 -16 -166 -63 -240 -138 l-70 -70 -58 24 c-188 76
-376 6 -468 -173 -13 -27 -21 -33 -38 -28 -173 50 -334 23 -440 -74 -82 -75
-128 -175 -145 -315 l-7 -59 -43 -8 c-60 -10 -140 -48 -186 -89 -82 -71 -118
-165 -111 -287 l4 -77 -79 -38 c-157 -76 -247 -197 -257 -347 -7 -92 11 -163
67 -266 l39 -71 -35 -34 c-19 -19 -50 -63 -67 -99 -28 -57 -32 -74 -32 -150 0
-76 4 -93 32 -150 17 -36 47 -80 66 -99 l35 -33 -38 -72 c-97 -178 -92 -342
14 -477 46 -59 126 -118 204 -150 l48 -20 0 -97 c0 -86 3 -104 28 -159 46
-102 134 -169 253 -196 l57 -13 13 -88 c25 -172 117 -303 249 -356 65 -25 204
-36 265 -21 91 24 87 24 108 -16 50 -99 169 -187 270 -200 49 -7 145 11 207
38 l45 19 67 -68 c197 -200 447 -195 637 13 l51 55 64 -26 c51 -21 82 -27 145
-28 72 -1 88 3 147 32 71 35 135 97 169 164 21 42 25 43 66 27 47 -19 204 -20
265 -3 162 48 263 178 291 371 l12 86 57 13 c120 28 208 95 254 197 25 54 28
74 28 158 l0 95 79 39 c178 86 266 226 254 404 -6 76 -12 96 -55 183 l-49 97
34 33 c19 18 49 62 66 98 28 57 32 74 32 150 0 100 -27 170 -94 243 l-41 44
31 47 c16 27 41 82 55 125 69 208 -23 408 -234 508 l-78 36 0 96 c-1 112 -18
165 -77 236 -47 56 -113 95 -197 116 l-64 16 -13 86 c-41 285 -257 436 -532
372 -35 -9 -65 -14 -66 -13 -1 2 -19 29 -39 61 -79 120 -165 170 -296 170 -71
1 -96 -4 -150 -26 l-64 -27 -51 55 c-113 123 -256 179 -394 154z"/>
</g>
</svg>
